{"asset":{"generator":"3D Builder","version":"2.0"},"scene":0,"scenes":[{"nodes":[0,1,2]}],"nodes":[{"mesh":0,"matrix":[0.0010000000474974513,0,0,0,0,0.00099999981466680765,-1.788139220026963E-10,0,0,1.788139220026963E-10,0.00099999981466680765,0,-6.579100045200903E-6,0.00022361498849932104,0.00014841694792266935,1]},{"mesh":1,"matrix":[0.0010000000474974513,0,0,0,0,0.00099999981466680765,-1.788139220026963E-10,0,0,1.788139220026963E-10,0.00099999981466680765,0,0.00031575700268149376,0.0001723960303934291,0.00033787894062697887,1]},{"mesh":2,"matrix":[0.0010000000474974513,0,0,0,0,0.00099999981466680765,-1.788139220026963E-10,0,0,1.788139220026963E-10,0.00099999981466680765,0,-0.00040786998579278588,0.00013732200022786856,0.00011751996498787776,1]}],"meshes":[{"primitives":[{"attributes":{"POSITION":0},"mode":4,"indices":1,"material":0}]},{"primitives":[{"attributes":{"POSITION":2},"mode":4,"indices":3,"material":0}]},{"primitives":[{"attributes":{"POSITION":4},"mode":4,"indices":5,"material":0}]}],"materials":[{"name":"Material","pbrMetallicRoughness":{"baseColorFactor":[0,0,0,1],"metallicFactor":0,"roughnessFactor":1},"alphaMode":"OPAQUE"}],"accessors":[{"bufferView":0,"byteOffset":0,"count":1538,"componentType":5126,"type":"VEC3","min":[-0.35294103622436523,-0.17323000729084015,-0.17323000729084015],"max":[0.35294103622436523,0.17323000729084015,0.17323000729084015]},{"bufferView":1,"byteOffset":0,"count":9216,"componentType":5125,"type":"SCALAR"},{"bufferView":2,"byteOffset":0,"count":82,"componentType":5126,"type":"VEC3","min":[-0.13493400812149048,-0.24204501509666443,-0.13493400812149048],"max":[0.13493400812149048,0.24204501509666443,0.13493400812149048]},{"bufferView":3,"byteOffset":0,"count":480,"componentType":5125,"type":"SCALAR"},{"bufferView":4,"byteOffset":0,"count":6,"componentType":5126,"type":"VEC3","min":[-0.14693300426006317,-0.24669601023197174,-0.14693300426006317],"max":[0.14693300426006317,0.24669601023197174,0.14693300426006317]},{"bufferView":5,"byteOffset":0,"count":24,"componentType":5125,"type":"SCALAR"}],"bufferViews":[{"buffer":0,"byteOffset":0,"byteLength":18456,"byteStride":12,"target":34962},{"buffer":0,"byteOffset":18456,"byteLength":36864,"target":34963},{"buffer":0,"byteOffset":55320,"byteLength":984,"byteStride":12,"target":34962},{"buffer":0,"byteOffset":56304,"byteLength":1920,"target":34963},{"buffer":0,"byteOffset":58224,"byteLength":72,"byteStride":12,"target":34962},{"buffer":0,"byteOffset":58296,"byteLength":96,"target":34963}],"buffers":[{"byteLength":58392,"uri":"aaaaa.bin"}]}